<svg width="401" height="399" viewBox="0 0 401 399" fill="none" xmlns="http://www.w3.org/2000/svg">
<path d="M300.779 199.507C355.577 199.507 400 155.07 400 100.254C400 45.4373 355.577 1 300.779 1C245.98 1 201.557 45.4373 201.557 100.254C201.557 155.07 245.98 199.507 300.779 199.507Z" stroke="#1D1D1B" stroke-width="0.75" stroke-miterlimit="10"/>
<path d="M399.986 100.253H201.557V199.507H399.986V100.253Z" stroke="#1D1D1B" stroke-width="0.75" stroke-miterlimit="10"/>
<path d="M399.986 1.01392H201.557V100.267H399.986V1.01392Z" stroke="#1D1D1B" stroke-width="0.75" stroke-miterlimit="10"/>
<path d="M201.557 100.253H3.12891V199.507H201.557V100.253Z" stroke="#1D1D1B" stroke-width="0.75" stroke-miterlimit="10"/>
<path d="M201.557 199.507H3.12891V298.761H201.557V199.507Z" stroke="#1D1D1B" stroke-width="0.75" stroke-miterlimit="10"/>
<path d="M201.557 298.747H3.12891V398H201.557V298.747Z" stroke="#1D1D1B" stroke-width="0.75" stroke-miterlimit="10"/>
<path d="M201.557 199.507V398H300.779V199.507H201.557Z" stroke="#1D1D1B" stroke-width="0.75" stroke-miterlimit="10"/>
<path d="M300.779 199.507V398H400V199.507H300.779Z" stroke="#1D1D1B" stroke-width="0.75" stroke-miterlimit="10"/>
<path d="M201.557 1.01392H3.12891V100.267H201.557V1.01392Z" stroke="#1D1D1B" stroke-width="0.75" stroke-miterlimit="10"/>
<path d="M309.291 75.4504H306.449V100.267H309.291V75.4504Z" fill="#1D1D1B"/>
<path d="M292.266 75.4504H289.438V100.267H292.266V75.4504Z" fill="#1D1D1B"/>
<path d="M297.937 75.4504H295.109V100.267H297.937V75.4504Z" fill="#1D1D1B"/>
<path d="M303.607 75.4504H300.779V100.267H303.607V75.4504Z" fill="#1D1D1B"/>
<path d="M286.61 75.4504H283.768V100.267H286.61V75.4504Z" fill="#1D1D1B"/>
<path d="M280.926 75.4504H278.098V100.267H280.926V75.4504Z" fill="#1D1D1B"/>
<path d="M207.228 67.1316V75.4506H210.056V60.0171C209.02 62.3419 208.082 64.7228 207.228 67.1316Z" fill="#1D1D1B"/>
<path d="M204.4 76.6409V100.267H207.228V75.4504H204.68C204.582 75.8426 204.484 76.2487 204.385 76.6409H204.4Z" fill="#1D1D1B"/>
<path d="M218.568 75.4504H215.74V100.267H218.568V75.4504Z" fill="#1D1D1B"/>
<path d="M212.898 75.4504H210.07V100.267H212.898V75.4504Z" fill="#1D1D1B"/>
<path d="M214.844 50.6336C214.172 51.796 213.528 52.9725 212.912 54.1489V75.4365H215.754V50.6196H214.858L214.844 50.6336Z" fill="#1D1D1B"/>
<path d="M224.238 37.1047C223.258 38.2812 222.32 39.4856 221.396 40.704V50.6336H224.238V37.1047Z" fill="#1D1D1B"/>
<path d="M218.568 44.6675C217.588 46.124 216.636 47.6085 215.74 49.1071V50.6196H218.568V44.6675Z" fill="#1D1D1B"/>
<path d="M221.396 50.6335H218.568V75.4504H221.396V50.6335Z" fill="#1D1D1B"/>
<path d="M275.256 75.4504H272.428V100.267H275.256V75.4504Z" fill="#1D1D1B"/>
<path d="M246.933 75.4504H244.091V100.267H246.933V75.4504Z" fill="#1D1D1B"/>
<path d="M252.603 75.4504H249.761V100.267H252.603V75.4504Z" fill="#1D1D1B"/>
<path d="M258.259 75.4504H255.431V100.267H258.259V75.4504Z" fill="#1D1D1B"/>
<path d="M263.916 75.4504H261.087V100.267H263.916V75.4504Z" fill="#1D1D1B"/>
<path d="M229.908 75.4504H227.08V100.267H229.908V75.4504Z" fill="#1D1D1B"/>
<path d="M241.249 75.4504H238.421V100.267H241.249V75.4504Z" fill="#1D1D1B"/>
<path d="M224.252 75.4504H221.41V100.267H224.252V75.4504Z" fill="#1D1D1B"/>
<path d="M235.593 75.4504H232.75V100.267H235.593V75.4504Z" fill="#1D1D1B"/>
<path d="M269.586 75.4504H266.758V100.267H269.586V75.4504Z" fill="#1D1D1B"/>
<path d="M394.33 75.4504H391.488V100.267H394.33V75.4504Z" fill="#1D1D1B"/>
<path d="M382.989 44.6676C382.079 43.3231 381.127 41.9927 380.161 40.6902V50.6197H382.989V44.6676Z" fill="#1D1D1B"/>
<path d="M377.319 37.1048C376.395 35.9844 375.457 34.892 374.477 33.8276V50.6477H377.319V37.1188V37.1048Z" fill="#1D1D1B"/>
<path d="M365.979 25.4526V25.8168H366.399C366.259 25.6907 366.119 25.5647 365.979 25.4526Z" fill="#1D1D1B"/>
<path d="M363.151 23.0719C362.213 22.3157 361.275 21.5734 360.323 20.8591V25.8309H363.151V23.0859V23.0719Z" fill="#1D1D1B"/>
<path d="M394.33 67.1316V75.4506H396.878C396.15 72.6216 395.296 69.8486 394.33 67.1316Z" fill="#1D1D1B"/>
<path d="M385.817 49.1072V50.6197H386.713C386.419 50.1155 386.125 49.6114 385.817 49.1072Z" fill="#1D1D1B"/>
<path d="M391.488 60.003C390.606 58.0143 389.654 56.0676 388.66 54.1489V75.4365H391.488V60.003Z" fill="#1D1D1B"/>
<path d="M371.649 30.8026C370.725 29.8503 369.773 28.926 368.807 28.0156V50.6197H371.649V30.7886V30.8026Z" fill="#1D1D1B"/>
<path d="M317.789 2.47037C316.851 2.30231 315.899 2.16227 314.947 2.02222V25.8167H317.789V2.45637V2.47037Z" fill="#1D1D1B"/>
<path d="M323.459 3.61891C322.521 3.39483 321.569 3.18475 320.631 3.00269V25.8309H323.459V3.63291V3.61891Z" fill="#1D1D1B"/>
<path d="M312.119 1.65803C311.181 1.54599 310.229 1.46196 309.291 1.37793V25.8167H312.119V1.65803Z" fill="#1D1D1B"/>
<path d="M329.13 5.1313C328.192 4.8512 327.24 4.5851 326.302 4.33301V25.8307H329.13V5.1313Z" fill="#1D1D1B"/>
<path d="M357.481 18.8002C356.543 18.142 355.605 17.5117 354.653 16.8955V25.8167H357.481V18.8002Z" fill="#1D1D1B"/>
<path d="M334.8 6.99402C333.862 6.6579 332.91 6.32178 331.972 6.01367V25.8168H334.8V6.99402Z" fill="#1D1D1B"/>
<path d="M346.14 11.9659C345.202 11.4898 344.264 11.0136 343.298 10.5654V25.8169H346.14V11.9659Z" fill="#1D1D1B"/>
<path d="M340.47 9.27684C339.532 8.87069 338.594 8.46456 337.628 8.08643V25.8168H340.47V9.27684Z" fill="#1D1D1B"/>
<path d="M368.821 50.6335H365.979V75.4504H368.821V50.6335Z" fill="#1D1D1B"/>
<path d="M343.298 75.4504H340.47V100.267H343.298V75.4504Z" fill="#1D1D1B"/>
<path d="M348.982 75.4504H346.14V100.267H348.982V75.4504Z" fill="#1D1D1B"/>
<path d="M388.646 75.4504H385.817V100.267H388.646V75.4504Z" fill="#1D1D1B"/>
<path d="M360.309 75.4504H357.48V100.267H360.309V75.4504Z" fill="#1D1D1B"/>
<path d="M354.639 75.4504H351.811V100.267H354.639V75.4504Z" fill="#1D1D1B"/>
<path d="M320.617 75.4504H317.789V100.267H320.617V75.4504Z" fill="#1D1D1B"/>
<path d="M331.972 75.4504H329.13V100.267H331.972V75.4504Z" fill="#1D1D1B"/>
<path d="M326.288 75.4504H323.459V100.267H326.288V75.4504Z" fill="#1D1D1B"/>
<path d="M337.628 75.4504H334.8V100.267H337.628V75.4504Z" fill="#1D1D1B"/>
<path d="M365.979 75.4504H363.151V100.267H365.979V75.4504Z" fill="#1D1D1B"/>
<path d="M377.319 75.4504H374.477V100.267H377.319V75.4504Z" fill="#1D1D1B"/>
<path d="M382.976 75.4504H380.147V100.267H382.976V75.4504Z" fill="#1D1D1B"/>
<path d="M385.817 50.6335H382.99V75.4504H385.817V50.6335Z" fill="#1D1D1B"/>
<path d="M380.161 50.6335H377.319V75.4504H380.161V50.6335Z" fill="#1D1D1B"/>
<path d="M314.947 75.4504H312.119V100.267H314.947V75.4504Z" fill="#1D1D1B"/>
<path d="M374.477 50.6335H371.649V75.4504H374.477V50.6335Z" fill="#1D1D1B"/>
<path d="M371.649 75.4504H368.807V100.267H371.649V75.4504Z" fill="#1D1D1B"/>
<path d="M351.811 15.131C350.873 14.5708 349.934 14.0246 348.982 13.4924V25.8168H351.811V15.117V15.131Z" fill="#1D1D1B"/>
<path d="M317.789 50.6335H314.947V75.4504H317.789V50.6335Z" fill="#1D1D1B"/>
<path d="M323.446 50.6335H320.617V75.4504H323.446V50.6335Z" fill="#1D1D1B"/>
<path d="M306.449 50.6335H303.621V75.4504H306.449V50.6335Z" fill="#1D1D1B"/>
<path d="M312.119 50.6335H309.291V75.4504H312.119V50.6335Z" fill="#1D1D1B"/>
<path d="M329.116 50.6335H326.288V75.4504H329.116V50.6335Z" fill="#1D1D1B"/>
<path d="M334.786 50.6335H331.958V75.4504H334.786V50.6335Z" fill="#1D1D1B"/>
<path d="M346.14 50.6335H343.298V75.4504H346.14V50.6335Z" fill="#1D1D1B"/>
<path d="M340.47 50.6335H337.628V75.4504H340.47V50.6335Z" fill="#1D1D1B"/>
<path d="M266.758 50.6335H263.929V75.4504H266.758V50.6335Z" fill="#1D1D1B"/>
<path d="M272.428 50.6335H269.6V75.4504H272.428V50.6335Z" fill="#1D1D1B"/>
<path d="M351.796 50.6335H348.968V75.4504H351.796V50.6335Z" fill="#1D1D1B"/>
<path d="M278.098 50.6335H275.27V75.4504H278.098V50.6335Z" fill="#1D1D1B"/>
<path d="M261.101 50.6335H258.259V75.4504H261.101V50.6335Z" fill="#1D1D1B"/>
<path d="M283.782 50.6335H280.94V75.4504H283.782V50.6335Z" fill="#1D1D1B"/>
<path d="M295.109 50.6335H292.281V75.4504H295.109V50.6335Z" fill="#1D1D1B"/>
<path d="M300.793 50.6335H297.951V75.4504H300.793V50.6335Z" fill="#1D1D1B"/>
<path d="M289.438 50.6335H286.61V75.4504H289.438V50.6335Z" fill="#1D1D1B"/>
<path d="M320.617 25.8169H317.789V50.6338H320.617V25.8169Z" fill="#1D1D1B"/>
<path d="M314.947 25.8169H312.119V50.6338H314.947V25.8169Z" fill="#1D1D1B"/>
<path d="M326.288 25.8169H323.459V50.6338H326.288V25.8169Z" fill="#1D1D1B"/>
<path d="M331.972 25.8169H329.13V50.6338H331.972V25.8169Z" fill="#1D1D1B"/>
<path d="M397.158 76.6409V100.267H399.986C399.986 92.1164 399.006 84.2176 397.158 76.6409Z" fill="#1D1D1B"/>
<path d="M309.291 25.8169H306.449V50.6338H309.291V25.8169Z" fill="#1D1D1B"/>
<path d="M306.449 25.8169V1.16805C305.511 1.11203 304.559 1.07 303.621 1.04199V25.8169H306.449Z" fill="#1D1D1B"/>
<path d="M363.137 50.6335H360.309V75.4504H363.137V50.6335Z" fill="#1D1D1B"/>
<path d="M365.979 25.8169H363.151V50.6338H365.979V25.8169Z" fill="#1D1D1B"/>
<path d="M357.467 50.6335H354.639V75.4504H357.467V50.6335Z" fill="#1D1D1B"/>
<path d="M337.628 25.8169H334.8V50.6338H337.628V25.8169Z" fill="#1D1D1B"/>
<path d="M360.309 25.8169H357.48V50.6338H360.309V25.8169Z" fill="#1D1D1B"/>
<path d="M343.298 25.8169H340.47V50.6338H343.298V25.8169Z" fill="#1D1D1B"/>
<path d="M348.982 25.8169H346.14V50.6338H348.982V25.8169Z" fill="#1D1D1B"/>
<path d="M354.639 25.8169H351.811V50.6338H354.639V25.8169Z" fill="#1D1D1B"/>
<path d="M261.087 9.27686C260.135 9.69701 259.183 10.1172 258.245 10.5653V25.8168H261.087V9.27686Z" fill="#1D1D1B"/>
<path d="M278.098 3.6189C277.146 3.84298 276.208 4.08105 275.27 4.33314V25.8308H278.098V3.63289V3.6189Z" fill="#1D1D1B"/>
<path d="M272.428 5.13145C271.476 5.41155 270.538 5.70564 269.6 6.01375V25.8168H272.428V5.11743V5.13145Z" fill="#1D1D1B"/>
<path d="M283.768 2.47046C282.816 2.63852 281.878 2.80659 280.926 3.00266V25.8308H283.768V2.47046Z" fill="#1D1D1B"/>
<path d="M295.109 1.16807C294.157 1.22409 293.219 1.29412 292.281 1.36414V25.8029H295.109V1.15405V1.16807Z" fill="#1D1D1B"/>
<path d="M303.607 25.8169H300.779V50.6338H303.607V25.8169Z" fill="#1D1D1B"/>
<path d="M255.417 50.6335H252.589V75.4504H255.417V50.6335Z" fill="#1D1D1B"/>
<path d="M289.438 1.6582C288.486 1.77024 287.548 1.8823 286.61 2.02235V25.8168H289.438V1.6582Z" fill="#1D1D1B"/>
<path d="M300.779 1.01392C299.827 1.01392 298.889 1.02792 297.937 1.05593V25.8308H300.779V1.01392Z" fill="#1D1D1B"/>
<path d="M238.421 23.0718C237.455 23.8421 236.517 24.6403 235.593 25.4526V25.8167H238.421V23.0718Z" fill="#1D1D1B"/>
<path d="M232.736 50.6335H229.908V75.4504H232.736V50.6335Z" fill="#1D1D1B"/>
<path d="M229.908 30.8025C228.942 31.7828 227.99 32.7912 227.08 33.8136V50.6336H229.908V30.8025Z" fill="#1D1D1B"/>
<path d="M249.761 15.1309C248.809 15.7051 247.857 16.2933 246.933 16.8955V25.8167H249.761V15.1309Z" fill="#1D1D1B"/>
<path d="M255.431 11.9658C254.479 12.456 253.527 12.9742 252.603 13.4924V25.8168H255.431V11.9658Z" fill="#1D1D1B"/>
<path d="M227.066 50.6335H224.238V75.4504H227.066V50.6335Z" fill="#1D1D1B"/>
<path d="M244.091 18.8003C243.139 19.4725 242.187 20.1448 241.263 20.845V25.8168H244.091V18.8003Z" fill="#1D1D1B"/>
<path d="M266.758 6.99414C265.806 7.34427 264.867 7.70842 263.929 8.08655V25.8169H266.758V6.99414Z" fill="#1D1D1B"/>
<path d="M241.249 25.8169H238.421V50.6338H241.249V25.8169Z" fill="#1D1D1B"/>
<path d="M246.933 25.8169H244.091V50.6338H246.933V25.8169Z" fill="#1D1D1B"/>
<path d="M235.578 25.8167H235.158C234.346 26.545 233.534 27.2733 232.736 28.0155V50.6196H235.578V25.8027V25.8167Z" fill="#1D1D1B"/>
<path d="M297.937 25.8169H295.109V50.6338H297.937V25.8169Z" fill="#1D1D1B"/>
<path d="M238.407 50.6335H235.579V75.4504H238.407V50.6335Z" fill="#1D1D1B"/>
<path d="M252.603 25.8169H249.761V50.6338H252.603V25.8169Z" fill="#1D1D1B"/>
<path d="M244.077 50.6335H241.249V75.4504H244.077V50.6335Z" fill="#1D1D1B"/>
<path d="M249.747 50.6335H246.919V75.4504H249.747V50.6335Z" fill="#1D1D1B"/>
<path d="M258.259 25.8169H255.431V50.6338H258.259V25.8169Z" fill="#1D1D1B"/>
<path d="M286.61 25.8169H283.768V50.6338H286.61V25.8169Z" fill="#1D1D1B"/>
<path d="M292.266 25.8169H289.438V50.6338H292.266V25.8169Z" fill="#1D1D1B"/>
<path d="M280.926 25.8169H278.098V50.6338H280.926V25.8169Z" fill="#1D1D1B"/>
<path d="M263.916 25.8169H261.087V50.6338H263.916V25.8169Z" fill="#1D1D1B"/>
<path d="M275.256 25.8169H272.428V50.6338H275.256V25.8169Z" fill="#1D1D1B"/>
<path d="M269.586 25.8169H266.758V50.6338H269.586V25.8169Z" fill="#1D1D1B"/>
<path d="M100.949 260.485C107.242 233.813 90.7288 207.089 64.0661 200.794C37.4033 194.499 10.6874 211.017 4.39447 237.688C-1.89851 264.36 14.6144 291.084 41.2772 297.379C67.9399 303.674 94.6558 287.156 100.949 260.485Z" stroke="#1D1D1B" stroke-width="0.75" stroke-miterlimit="10"/>
<path d="M200.99 257.108C205.38 230.058 187.017 204.57 159.975 200.179C132.934 195.788 107.454 214.157 103.065 241.208C98.6753 268.258 117.038 293.746 144.08 298.137C171.121 302.528 196.601 284.158 200.99 257.108Z" stroke="#1D1D1B" stroke-width="0.75" stroke-miterlimit="10"/>
<path d="M139.955 200.978C139.003 201.216 138.051 201.482 137.127 201.762V296.492C138.065 296.786 139.003 297.038 139.955 297.276V200.978Z" fill="#1D1D1B"/>
<path d="M133.739 202.98C132.773 203.358 131.835 203.764 130.911 204.199V294.069C131.835 294.503 132.787 294.909 133.739 295.287V202.98Z" fill="#1D1D1B"/>
<path d="M146.172 199.857C145.22 199.969 144.268 200.109 143.344 200.277V298.004C144.282 298.172 145.22 298.312 146.172 298.424V199.871V199.857Z" fill="#1D1D1B"/>
<path d="M108.875 224.548C107.81 226.411 106.858 228.343 106.046 230.346V267.907C106.872 269.91 107.81 271.843 108.875 273.706V224.534V224.548Z" fill="#1D1D1B"/>
<path d="M152.388 298.746V199.521C152.248 199.521 152.108 199.521 151.968 199.521C151.156 199.521 150.358 199.549 149.56 199.577V298.704C150.358 298.746 151.156 298.761 151.968 298.761C152.108 298.761 152.248 298.761 152.388 298.761V298.746Z" fill="#1D1D1B"/>
<path d="M121.307 210.123C120.341 210.893 119.389 211.677 118.479 212.518V285.722C119.389 286.562 120.341 287.346 121.307 288.117V210.123Z" fill="#1D1D1B"/>
<path d="M127.523 205.949C126.557 206.495 125.619 207.07 124.695 207.686V290.582C125.619 291.184 126.571 291.772 127.523 292.318V205.963V205.949Z" fill="#1D1D1B"/>
<path d="M115.091 282.319V215.935C114.097 217.041 113.145 218.19 112.263 219.38V278.887C113.159 280.078 114.097 281.226 115.091 282.333V282.319Z" fill="#1D1D1B"/>
<path d="M189.685 281.338V216.929C188.775 215.865 187.837 214.842 186.857 213.862V284.405C187.851 283.425 188.789 282.403 189.685 281.338Z" fill="#1D1D1B"/>
<path d="M158.604 199.955C157.666 199.829 156.728 199.731 155.776 199.661V298.593C156.728 298.523 157.68 298.424 158.604 298.298V199.955Z" fill="#1D1D1B"/>
<path d="M198.729 265.667C200.564 260.485 201.557 254.925 201.557 249.127C201.557 243.329 200.55 237.755 198.729 232.587V265.667Z" fill="#1D1D1B"/>
<path d="M183.469 210.795C182.559 210.039 181.607 209.324 180.641 208.638V289.601C181.607 288.915 182.559 288.201 183.469 287.444V210.781V210.795Z" fill="#1D1D1B"/>
<path d="M195.901 226.103C195.047 224.464 194.095 222.867 193.073 221.341V276.913C194.109 275.386 195.047 273.79 195.901 272.151V226.088V226.103Z" fill="#1D1D1B"/>
<path d="M164.82 201.202C163.882 200.949 162.944 200.725 161.992 200.529V297.752C162.944 297.556 163.896 297.318 164.82 297.08V201.216V201.202Z" fill="#1D1D1B"/>
<path d="M171.037 203.316C170.113 202.924 169.161 202.574 168.208 202.238V296.016C169.161 295.679 170.113 295.329 171.037 294.937V203.302V203.316Z" fill="#1D1D1B"/>
<path d="M177.253 206.44C176.329 205.893 175.377 205.375 174.425 204.885V293.369C175.391 292.878 176.329 292.36 177.253 291.814V206.44Z" fill="#1D1D1B"/>
<path d="M201.557 298.747H204.385V398H201.557V298.747ZM207.228 398H210.056V298.747H207.228V398ZM213.444 398H216.272V298.747H213.444V398ZM219.66 398H222.488V298.747H219.66V398ZM225.876 398H228.704V298.747H225.876V398ZM232.092 398H234.921V298.747H232.092V398ZM238.309 398H241.137V298.747H238.309V398ZM244.525 398H247.353V298.747H244.525V398ZM250.741 398H253.569V298.747H250.741V398ZM256.957 398H259.785V298.747H256.957V398ZM263.173 398H266.002V298.747H263.173V398ZM269.39 398H272.218V298.747H269.39V398ZM275.606 398H278.434V298.747H275.606V398ZM281.822 398H284.65V298.747H281.822V398ZM288.038 398H290.866V298.747H288.038V398ZM294.255 398H297.083V298.747H294.255V398Z" fill="#1D1D1B"/>
<path d="M400 203.19V206.019H300.779V203.19H400ZM300.779 208.862V211.691H400V208.862H300.779ZM300.779 215.081V217.91H400V215.081H300.779ZM300.779 221.299V224.128H400V221.299H300.779ZM300.779 227.517V230.346H400V227.517H300.779ZM300.779 233.735V236.564H400V233.735H300.779ZM300.779 239.954V242.783H400V239.954H300.779ZM300.779 246.172V249.001H400V246.172H300.779ZM300.779 252.39V255.219H400V252.39H300.779ZM300.779 258.608V261.437H400V258.608H300.779ZM300.779 264.826V267.655H400V264.826H300.779ZM300.779 271.045V273.874H400V271.045H300.779ZM300.779 277.263V280.092H400V277.263H300.779ZM300.779 283.481V286.31H400V283.481H300.779ZM300.779 289.699V292.528H400V289.699H300.779ZM300.779 295.918V298.747H400V295.918H300.779Z" fill="#1D1D1B"/>
<path d="M3.12891 1.01392H5.95703V100.267H3.12891V1.01392ZM8.79916 100.267H11.6273V1.01392H8.79916V100.267ZM15.0153 100.267H17.8434V1.01392H15.0153V100.267ZM21.2316 100.267H24.0597V1.01392H21.2316V100.267ZM27.4477 100.267H30.2758V1.01392H27.4477V100.267ZM33.664 100.267H36.4921V1.01392H33.664V100.267ZM39.8801 100.267H42.7082V1.01392H39.8801V100.267ZM46.0964 100.267H48.9245V1.01392H46.0964V100.267ZM52.3125 100.267H55.1407V1.01392H52.3125V100.267ZM58.5288 100.267H61.3568V1.01392H58.5288V100.267ZM64.7449 100.267H67.5731V1.01392H64.7449V100.267ZM70.9612 100.267H73.7892V1.01392H70.9612V100.267ZM77.1774 100.267H80.0055V1.01392H77.1774V100.267ZM83.3937 100.267H86.2216V1.01392H83.3937V100.267ZM89.6098 100.267H92.4379V1.01392H89.6098V100.267ZM95.8261 100.267H98.654V1.01392H95.8261V100.267Z" fill="#1D1D1B"/>
<path d="M201.348 1.01392V3.84291H102.126V1.01392H201.348ZM102.126 6.68595V9.51495H201.348V6.68595H102.126ZM102.126 12.9042V15.7332H201.348V12.9042H102.126ZM102.126 19.1224V21.9514H201.348V19.1224H102.126ZM102.126 25.3406V28.1696H201.348V25.3406H102.126ZM102.126 31.5588V34.3879H201.348V31.5588H102.126ZM102.126 37.7771V40.6061H201.348V37.7771H102.126ZM102.126 43.9953V46.8243H201.348V43.9953H102.126ZM102.126 50.2135V53.0425H201.348V50.2135H102.126ZM102.126 56.4317V59.2607H201.348V56.4317H102.126ZM102.126 62.65V65.479H201.348V62.65H102.126ZM102.126 68.8682V71.6972H201.348V68.8682H102.126ZM102.126 75.0864V77.9154H201.348V75.0864H102.126ZM102.126 81.3046V84.1336H201.348V81.3046H102.126ZM102.126 87.5228V90.3519H201.348V87.5228H102.126ZM102.126 93.7411V96.5701H201.348V93.7411H102.126Z" fill="#1D1D1B"/>
<path d="M4.59912 261.143C4.83713 262.095 5.10305 263.048 5.38306 263.972H100.082C100.376 263.034 100.628 262.095 100.866 261.143H4.59912Z" fill="#1D1D1B"/>
<path d="M6.60107 267.361C6.97909 268.314 7.38509 269.266 7.81911 270.19H97.6601C98.0941 269.266 98.5002 268.314 98.8782 267.361H6.60107Z" fill="#1D1D1B"/>
<path d="M3.479 254.925C3.59101 255.877 3.73108 256.83 3.89909 257.754H101.594C101.762 256.816 101.902 255.877 102.014 254.925H3.49302H3.479Z" fill="#1D1D1B"/>
<path d="M28.162 292.234C30.024 293.299 31.9561 294.251 33.9582 295.063H71.5073C73.5094 294.237 75.4415 293.299 77.3035 292.234H28.1479H28.162Z" fill="#1D1D1B"/>
<path d="M102.336 248.707H3.14307C3.14307 248.847 3.14307 248.987 3.14307 249.127C3.14307 249.939 3.17112 250.737 3.19912 251.536H102.294C102.336 250.737 102.35 249.939 102.35 249.127C102.35 248.987 102.35 248.847 102.35 248.707H102.336Z" fill="#1D1D1B"/>
<path d="M13.7554 279.798C14.5254 280.764 15.3095 281.717 16.1496 282.627H89.344C90.184 281.717 90.968 280.764 91.738 279.798H13.7554Z" fill="#1D1D1B"/>
<path d="M9.56934 273.58C10.1154 274.546 10.6894 275.484 11.3054 276.409H94.1742C94.7902 275.484 95.3642 274.532 95.9102 273.58H9.58335H9.56934Z" fill="#1D1D1B"/>
<path d="M85.9279 286.016H19.5657C20.6717 287.01 21.8199 287.963 23.0099 288.845H82.4978C83.6879 287.949 84.8359 287.01 85.9419 286.016H85.9279Z" fill="#1D1D1B"/>
<path d="M84.9338 211.397H20.5457C19.4816 212.308 18.4595 213.246 17.4795 214.226H87.9998C87.0198 213.232 85.9978 212.294 84.9338 211.397Z" fill="#1D1D1B"/>
<path d="M3.59125 242.489C3.46524 243.427 3.36712 244.365 3.29712 245.318H102.196C102.126 244.365 102.028 243.413 101.902 242.489H3.59125Z" fill="#1D1D1B"/>
<path d="M69.2812 202.336C64.1011 200.501 58.543 199.507 52.7468 199.507C46.9506 199.507 41.3783 200.515 36.2122 202.336H69.2812Z" fill="#1D1D1B"/>
<path d="M14.4276 217.615C13.6716 218.526 12.9575 219.478 12.2715 220.444H93.2081C92.522 219.478 91.8081 218.526 91.0521 217.615H14.4136H14.4276Z" fill="#1D1D1B"/>
<path d="M29.716 205.179C28.0779 206.034 26.4819 206.986 24.9558 208.008H80.5097C78.9837 206.972 77.3876 206.034 75.7495 205.179H29.702H29.716Z" fill="#1D1D1B"/>
<path d="M4.82329 236.27C4.57128 237.209 4.34713 238.147 4.15112 239.099H101.342C101.146 238.147 100.908 237.195 100.67 236.27H4.83713H4.82329Z" fill="#1D1D1B"/>
<path d="M6.93702 230.052C6.54501 230.976 6.19514 231.929 5.85913 232.881H99.6062C99.2701 231.929 98.9201 230.976 98.5281 230.052H6.92318H6.93702Z" fill="#1D1D1B"/>
<path d="M10.0593 223.834C9.51331 224.758 8.99514 225.71 8.50513 226.663H96.9601C96.4701 225.696 95.9521 224.758 95.4061 223.834H10.0593Z" fill="#1D1D1B"/>
<path d="M201.557 298.747H400" stroke="#1D1D1B" stroke-width="0.75" stroke-miterlimit="10"/>
</svg>
