<svg width="399" height="399" viewBox="0 0 399 399" fill="none" xmlns="http://www.w3.org/2000/svg">
<path d="M199.5 1.00171H1V398H199.5V1.00171Z" stroke="black" stroke-width="0.75" stroke-linecap="round" stroke-linejoin="round"/>
<path d="M398 1.00171H364.821V398H398V1.00171Z" stroke="black" stroke-width="0.75" stroke-linecap="round" stroke-linejoin="round"/>
<path d="M166.475 1.00171H34.179V133.055H166.475V1.00171Z" stroke="black" stroke-width="0.75" stroke-linecap="round" stroke-linejoin="round"/>
<path d="M364.863 265.933H232.567V397.986H364.863V265.933Z" stroke="black" stroke-width="0.75" stroke-linecap="round" stroke-linejoin="round"/>
<path d="M166.489 265.122H34.179L100.327 133.055L166.489 265.122Z" stroke="black" stroke-width="0.75" stroke-linecap="round" stroke-linejoin="round"/>
<path d="M232.413 133.055H364.723L298.575 265.122L232.413 133.055Z" stroke="black" stroke-width="0.75" stroke-linecap="round" stroke-linejoin="round"/>
<path d="M364.863 1.00171H298.715V133.055H364.863V1.00171Z" stroke="black" stroke-width="0.75" stroke-linecap="round" stroke-linejoin="round"/>
<path d="M100.327 265.933H34.179V397.986H100.327V265.933Z" stroke="black" stroke-width="0.75" stroke-linecap="round" stroke-linejoin="round"/>
<path d="M232.575 132.774C269.03 132.774 298.583 103.275 298.583 66.8868C298.583 30.4985 269.03 1 232.575 1C196.12 1 166.567 30.4985 166.567 66.8868C166.567 103.275 196.12 132.774 232.575 132.774Z" stroke="black" stroke-width="0.75" stroke-linecap="round" stroke-linejoin="round"/>
<path d="M166.564 397.704C203.019 397.704 232.572 368.206 232.572 331.818C232.572 295.429 203.019 265.931 166.564 265.931C130.109 265.931 100.556 295.429 100.556 331.818C100.556 368.206 130.109 397.704 166.564 397.704Z" stroke="black" stroke-width="0.75" stroke-linecap="round" stroke-linejoin="round"/>
<path d="M166.489 265.122V198.215C166.489 162.231 195.719 133.055 231.769 133.055H232.581V199.962C232.581 236.268 202.862 265.569 166.489 265.108V265.122Z" stroke="black" stroke-width="0.75" stroke-linecap="round" stroke-linejoin="round"/>
<path d="M232.567 197.977H166.489" stroke="black" stroke-width="0.75" stroke-linecap="round" stroke-linejoin="round"/>
</svg>
