<svg width="19" height="18" viewBox="0 0 19 18" fill="none" xmlns="http://www.w3.org/2000/svg">
<path d="M12.2591 11.2458L11.7303 10.7139H11.7303L12.2591 11.2458ZM12.6766 10.8307L13.2054 11.3625L12.6766 10.8307ZM14.8918 10.5403L14.5336 11.1992H14.5336L14.8918 10.5403ZM16.6431 11.4923L16.2849 12.1513L16.6431 11.4923ZM17.1366 14.4761L17.6654 15.0079L17.1366 14.4761ZM15.8344 15.7708L15.3056 15.239L15.8344 15.7708ZM14.62 16.3847L14.6896 17.1315H14.6896L14.62 16.3847ZM5.58083 12.4994L6.10965 11.9675L5.58083 12.4994ZM1.16939 4.26682L0.420603 4.30937L0.420603 4.30937L1.16939 4.26682ZM7.10447 5.59761L7.63329 6.12945L7.10447 5.59761ZM7.24814 3.16487L7.84853 2.7154V2.7154L7.24814 3.16487ZM6.09223 1.62083L5.49184 2.07031L5.49184 2.07031L6.09223 1.62083ZM3.23974 1.36027L3.76856 1.89211L3.76856 1.89211L3.23974 1.36027ZM1.80094 2.7909L1.27213 2.25906L1.27213 2.25906L1.80094 2.7909ZM8.55794 9.53915L9.08676 9.00731L8.55794 9.53915ZM12.7879 11.7776L13.2054 11.3625L12.1477 10.2988L11.7303 10.7139L12.7879 11.7776ZM14.5336 11.1992L16.2849 12.1513L17.0013 10.8334L15.25 9.88137L14.5336 11.1992ZM16.6078 13.9442L15.3056 15.239L16.3633 16.3027L17.6654 15.0079L16.6078 13.9442ZM14.5504 15.638C13.2363 15.7605 9.8172 15.654 6.10965 11.9675L5.05201 13.0312C9.13022 17.0862 13.0164 17.2875 14.6896 17.1315L14.5504 15.638ZM6.10965 11.9675C2.57199 8.44995 1.9905 5.49667 1.91819 4.22426L0.420603 4.30937C0.51356 5.94502 1.24781 9.2486 5.05201 13.0312L6.10965 11.9675ZM7.37038 6.39087L7.63329 6.12945L6.57566 5.06577L6.31274 5.3272L7.37038 6.39087ZM7.84853 2.7154L6.69263 1.17136L5.49184 2.07031L6.64774 3.61434L7.84853 2.7154ZM2.71093 0.828432L1.27213 2.25906L2.32976 3.32274L3.76856 1.89211L2.71093 0.828432ZM6.84156 5.85903C6.31274 5.3272 6.31203 5.32791 6.31131 5.32862C6.31107 5.32887 6.31035 5.32959 6.30986 5.33008C6.30888 5.33106 6.30789 5.33206 6.30688 5.33309C6.30486 5.33514 6.30278 5.33728 6.30064 5.3395C6.29636 5.34395 6.29183 5.34874 6.28709 5.35389C6.27761 5.36418 6.26726 5.37589 6.25622 5.38907C6.23415 5.4154 6.20931 5.44763 6.1833 5.48601C6.13116 5.56297 6.07474 5.66413 6.02699 5.79086C5.92947 6.04968 5.87831 6.38812 5.94283 6.80405C6.06885 7.6163 6.62577 8.67559 8.02913 10.071L9.08676 9.00731C7.78136 7.70932 7.48009 6.92856 7.4251 6.57409C7.39913 6.40668 7.42676 6.33009 7.43066 6.31973C7.43363 6.31186 7.43357 6.3149 7.42512 6.32738C7.42096 6.33351 7.41479 6.34191 7.40593 6.35248C7.4015 6.35777 7.39639 6.36361 7.3905 6.37C7.38755 6.3732 7.38441 6.37654 7.38106 6.38002C7.37939 6.38176 7.37766 6.38353 7.37588 6.38534C7.37499 6.38624 7.37409 6.38716 7.37317 6.38808C7.37271 6.38854 7.37201 6.38924 7.37179 6.38947C7.37108 6.39017 7.37038 6.39087 6.84156 5.85903ZM8.02913 10.071C9.433 11.4669 10.4971 12.019 11.3106 12.1438C11.7267 12.2076 12.0649 12.157 12.3235 12.0607C12.4502 12.0135 12.5514 11.9577 12.6285 11.906C12.667 11.8803 12.6993 11.8556 12.7257 11.8338C12.739 11.8228 12.7507 11.8125 12.7611 11.8031C12.7662 11.7984 12.771 11.7939 12.7755 11.7897C12.7778 11.7875 12.7799 11.7855 12.782 11.7835C12.783 11.7824 12.784 11.7815 12.785 11.7805C12.7855 11.78 12.7862 11.7793 12.7865 11.779C12.7872 11.7783 12.7879 11.7776 12.2591 11.2458C11.7303 10.7139 11.731 10.7132 11.7317 10.7125C11.7319 10.7123 11.7326 10.7116 11.7331 10.7112C11.734 10.7103 11.7349 10.7094 11.7358 10.7085C11.7376 10.7067 11.7394 10.705 11.7412 10.7033C11.7447 10.7 11.748 10.6969 11.7512 10.694C11.7576 10.6881 11.7635 10.683 11.7688 10.6787C11.7794 10.6699 11.7877 10.6638 11.7937 10.6598C11.806 10.6516 11.8086 10.6518 11.7999 10.6551C11.7877 10.6596 11.7085 10.6873 11.538 10.6611C11.1781 10.6059 10.3916 10.3048 9.08676 9.00731L8.02913 10.071ZM6.69263 1.17136C5.73689 -0.105291 3.85538 -0.309527 2.71093 0.828432L3.76856 1.89211C4.22737 1.4359 5.04879 1.47849 5.49184 2.07031L6.69263 1.17136ZM1.91819 4.22426C1.90145 3.92981 2.03598 3.61486 2.32976 3.32274L1.27213 2.25906C0.77094 2.7574 0.372738 3.46713 0.420603 4.30937L1.91819 4.22426ZM15.3056 15.239C15.0609 15.4823 14.8037 15.6144 14.5504 15.638L14.6896 17.1315C15.3812 17.067 15.9458 16.7178 16.3633 16.3027L15.3056 15.239ZM7.63329 6.12945C8.55892 5.20908 8.62655 3.75466 7.84853 2.7154L6.64774 3.61434C6.99986 4.0847 6.94538 4.69815 6.57566 5.06577L7.63329 6.12945ZM16.2849 12.1513C17.0005 12.5403 17.1053 13.4495 16.6078 13.9442L17.6654 15.0079C18.9258 13.7546 18.535 11.6671 17.0013 10.8334L16.2849 12.1513ZM13.2054 11.3625C13.5369 11.0328 14.0732 10.9489 14.5336 11.1992L15.25 9.88137C14.2336 9.3288 12.9705 9.48075 12.1477 10.2988L13.2054 11.3625Z" fill="white"/>
</svg>
